<?xml version="1.0" encoding="utf-8"?><svg viewBox="0 0 51 51" xmlns="http://www.w3.org/2000/svg" xmlns:xlink="http://www.w3.org/1999/xlink"><style>:root>svg{display:none}:root>svg:target{display:block}</style><svg viewBox="0 0 6 11" id="arrow" xmlns="http://www.w3.org/2000/svg"><path d="M5.713.254c.16.17.241.374.241.616 0 .24-.08.446-.241.615L1.98 5.421l3.733 3.935c.16.17.241.375.241.616s-.08.447-.241.616a.769.769 0 0 1-.578.254.769.769 0 0 1-.577-.254L.24 6.03A.853.853 0 0 1 0 5.42c0-.236.08-.44.241-.608L4.558.254A.769.769 0 0 1 5.135 0c.225 0 .417.085.578.254Z"/></svg><svg fill="none" viewBox="0 0 18 17" id="arrow2" xmlns="http://www.w3.org/2000/svg"><path d="M8.845 1.664c-.916 0-1.773.167-2.573.503-.8.348-1.499.822-2.098 1.421-.6.6-1.074 1.3-1.422 2.099a6.583 6.583 0 0 0-.503 2.572c0 .915.168 1.773.503 2.572.348.8.822 1.5 1.422 2.099.6.6 1.299 1.073 2.098 1.421.8.336 1.657.503 2.573.503.915 0 1.772-.167 2.572-.503a6.748 6.748 0 0 0 2.098-1.421c.6-.6 1.074-1.3 1.422-2.099.335-.8.503-1.657.503-2.572 0-.916-.168-1.773-.503-2.572a6.747 6.747 0 0 0-1.422-2.099c-.6-.6-1.299-1.073-2.098-1.421a6.583 6.583 0 0 0-2.572-.503ZM.585 8.259c0-1.135.22-2.205.659-3.21a8.194 8.194 0 0 1 1.76-2.631 8.194 8.194 0 0 1 2.63-1.76A7.947 7.947 0 0 1 8.844 0c1.135 0 2.205.22 3.211.658a8.193 8.193 0 0 1 2.63 1.76 8.194 8.194 0 0 1 1.76 2.63 7.949 7.949 0 0 1 .658 3.211c0 1.135-.22 2.205-.657 3.21a8.194 8.194 0 0 1-1.76 2.631 8.194 8.194 0 0 1-2.63 1.76 7.947 7.947 0 0 1-3.211.658 7.947 7.947 0 0 1-3.211-.658 8.195 8.195 0 0 1-2.63-1.76 8.195 8.195 0 0 1-1.76-2.63 7.947 7.947 0 0 1-.658-3.211ZM7.22 4.797a.808.808 0 0 1 .59-.252c.225 0 .422.084.59.252l2.881 2.882a.874.874 0 0 1 .184.27.765.765 0 0 1 .068.31.765.765 0 0 1-.068.31.874.874 0 0 1-.184.27L8.4 11.74a.842.842 0 0 1-.59.232.842.842 0 0 1-.59-.232.842.842 0 0 1-.232-.59c0-.225.077-.422.232-.59L9.54 8.26 7.22 5.957a.842.842 0 0 1-.232-.59c0-.225.077-.415.232-.57Z" fill="#E5097F"/></svg><svg fill="none" viewBox="0 0 4 6" id="breadcrumbs" xmlns="http://www.w3.org/2000/svg"><path d="M.162 5.86A.435.435 0 0 1 0 5.518c0-.134.054-.247.162-.341L2.67 3 .162.822A.435.435 0 0 1 0 .482C0 .347.054.233.162.14A.573.573 0 0 1 .55 0C.7 0 .83.047.938.14l2.9 2.523a.432.432 0 0 1 0 .674L.938 5.86A.573.573 0 0 1 .55 6a.573.573 0 0 1-.388-.14Z" fill="#000"/></svg><svg viewBox="0 0 10 17" id="facebook" xmlns="http://www.w3.org/2000/svg"><path d="M6.002 16.826V9.324h2.721l.407-2.95H6.002V4.516c0-.424.097-.772.292-1.043.195-.271.624-.407 1.285-.407h1.653V.447A29.471 29.471 0 0 0 6.79.347c-1.186 0-2.157.33-2.912.992-.754.661-1.131 1.619-1.131 2.874v2.161H.05v2.95h2.721v7.503h3.23Z"/></svg><svg viewBox="0 0 18 19" id="instagram" xmlns="http://www.w3.org/2000/svg"><path d="M8.901 5.214c-1.271 0-2.352.445-3.242 1.335-.89.89-1.335 1.971-1.335 3.243 0 1.255.445 2.331 1.335 3.23.89.899 1.97 1.348 3.242 1.348s2.353-.45 3.243-1.348c.89-.899 1.335-1.975 1.335-3.23 0-1.272-.445-2.353-1.335-3.243-.89-.89-1.971-1.335-3.243-1.335Zm0 7.554c-.813 0-1.513-.293-2.098-.878s-.877-1.284-.877-2.098c0-.814.292-1.513.877-2.098s1.285-.878 2.098-.878c.814 0 1.514.293 2.099.878.585.585.877 1.284.877 2.098 0 .814-.293 1.513-.877 2.098-.585.585-1.285.878-2.099.878Zm4.756-8.8c-.288 0-.538.102-.75.305a1.014 1.014 0 0 0-.318.763c0 .288.106.538.318.75.212.212.462.318.75.318.305 0 .56-.106.763-.318.204-.212.305-.462.305-.75a.839.839 0 0 0-.025-.203l-.05-.204a3.907 3.907 0 0 0-.103-.19.781.781 0 0 0-.292-.293 3.89 3.89 0 0 0-.19-.102.628.628 0 0 0-.204-.063 1.637 1.637 0 0 0-.204-.013Zm4.146 5.824V7.948c0-.619-.017-1.233-.051-1.844a7.665 7.665 0 0 0-.356-2.009c-.204-.627-.56-1.204-1.068-1.73-.526-.508-1.102-.864-1.73-1.067A7.668 7.668 0 0 0 12.59.94a34.395 34.395 0 0 0-1.857-.05H7.07c-.61 0-1.22.017-1.83.05a7.828 7.828 0 0 0-2.023.357 4.236 4.236 0 0 0-1.716 1.068C.975 2.89.61 3.468.407 4.096A7.667 7.667 0 0 0 .05 6.103C.017 6.732 0 7.35 0 7.961v3.662c0 .61.017 1.22.05 1.831.035.712.153 1.382.357 2.01.203.627.568 1.203 1.094 1.729.525.525 1.102.89 1.729 1.093a7.665 7.665 0 0 0 2.01.356c.61.034 1.22.051 1.83.051h3.675c.62 0 1.234-.017 1.844-.05a7.666 7.666 0 0 0 2.01-.357c.627-.203 1.203-.568 1.729-1.093.508-.526.864-1.102 1.068-1.73a7.665 7.665 0 0 0 .356-2.009c.034-.61.05-1.22.05-1.83V9.791Zm-1.959 5.24a3.657 3.657 0 0 1-.28.546 3.704 3.704 0 0 1-.38.496 2.73 2.73 0 0 1-.471.381 3.662 3.662 0 0 1-.547.28c-.594.237-1.458.356-2.594.356H6.23c-1.136 0-2-.119-2.594-.356a3.662 3.662 0 0 1-.547-.28 2.731 2.731 0 0 1-.47-.381 3.706 3.706 0 0 1-.662-1.018c-.237-.593-.356-1.458-.356-2.594V7.11c0-1.128.119-1.988.356-2.582.085-.203.178-.385.28-.546.102-.161.229-.318.382-.47.152-.153.309-.285.47-.395.161-.11.343-.2.547-.267.593-.237 1.458-.36 2.594-.369a379.9 379.9 0 0 1 2.67-.013c.645 0 1.535.005 2.67.013 1.137.009 2.002.132 2.595.369.203.068.386.157.547.267.16.11.318.242.47.394.153.153.284.31.394.47.11.162.2.344.267.547.238.594.357 1.454.357 2.582v5.353c0 1.136-.12 1.993-.357 2.57Z"/></svg><svg fill="none" viewBox="0 0 51 51" id="nav" xmlns="http://www.w3.org/2000/svg"><circle cx="25.584" cy="25.416" r="24.916" stroke="#fff"/><path d="m23.531 19.677 5.74 5.74-5.74 5.738" stroke="#fff" stroke-linecap="round"/></svg><svg viewBox="0 0 19 16" id="telegram" xmlns="http://www.w3.org/2000/svg"><path d="M17.042.893 1 7.06c-.537.226-.816.47-.837.731-.022.262.194.463.646.604L4.92 9.667l9.516-5.998c.226-.141.413-.187.561-.137.149.049.138.151-.032.307l-7.714 6.973-.276 4.238a.81.81 0 0 0 .477-.127c.12-.085.237-.184.35-.297l1.992-1.95 4.154 3.074c.396.212.724.261.986.148.261-.113.441-.396.54-.848l2.713-12.864c.141-.565.078-.965-.19-1.198-.27-.233-.587-.265-.955-.095Z"/></svg><svg viewBox="0 0 19 20" id="whatsapp" xmlns="http://www.w3.org/2000/svg"><path d="M18.007 11.523c.136-1.206.192-2.294.168-3.264-.025-.982-.119-1.856-.28-2.62-.162-.765-.392-1.42-.69-1.968-.286-.56-.616-1.007-.989-1.343-.621-.584-1.542-1.038-2.76-1.361A16.198 16.198 0 0 0 9.549.454a15.555 15.555 0 0 0-4 .457c-1.281.31-2.289.814-3.022 1.51a5.089 5.089 0 0 0-.84 1.157 6.76 6.76 0 0 0-.55 1.352 10.69 10.69 0 0 0-.326 1.576c-.075.56-.118 1.15-.13 1.772-.013.621 0 1.349.037 2.182s.183 1.657.438 2.471a6.361 6.361 0 0 0 1.259 2.247c.584.672 1.417 1.17 2.5 1.492v1.921l.046.41c.03.274.17.448.42.523.285.1.568.006.848-.28.28-.286.861-.957 1.744-2.014.746.062 1.436.08 2.07.056a19.356 19.356 0 0 0 1.697-.13c.485-.063.877-.131 1.175-.206.311-.074.498-.118.56-.13.149-.05.441-.137.876-.261.448-.125.917-.367 1.408-.728.491-.36.955-.876 1.39-1.548.435-.684.721-1.604.858-2.76ZM8.27 15.868l-.298.392c-.212.249-.45.538-.718.867-.268.33-.538.656-.812.98-.273.323-.484.56-.634.708-.1.1-.19.14-.27.121-.08-.018-.121-.127-.121-.326v-3.189c-.908-.261-1.598-.684-2.07-1.268a5.08 5.08 0 0 1-1.026-1.893 8.052 8.052 0 0 1-.317-2.099V8.334c.025-1.032.149-1.965.373-2.798.223-.833.615-1.535 1.175-2.107.646-.61 1.529-1.039 2.648-1.287a14.665 14.665 0 0 1 3.469-.336 15.04 15.04 0 0 1 3.338.429c1.032.274 1.778.628 2.239 1.063.571.497.97 1.181 1.193 2.052.211.858.339 1.71.383 2.555.043.845.034 1.591-.029 2.238-.062.634-.087.976-.074 1.026-.124.97-.36 1.728-.709 2.275-.36.56-.743.98-1.147 1.259-.404.28-.786.47-1.147.569-.348.087-.59.149-.727.186-.1.037-.597.137-1.492.299-.896.161-1.971.199-3.227.111ZM9.297 3.876c-.15 0-.224.081-.224.243 0 .161.075.242.224.242a5.138 5.138 0 0 1 1.697.317c.522.212.98.516 1.371.914.392.398.706.89.942 1.473.236.585.354 1.256.354 2.015 0 .161.078.242.233.242.156 0 .233-.08.233-.242-.012-.82-.143-1.554-.391-2.201a4.82 4.82 0 0 0-1.026-1.623 4.206 4.206 0 0 0-1.53-1.007 5.241 5.241 0 0 0-1.883-.373Zm3.133 4.7c0 .162.078.243.233.243.156 0 .233-.075.233-.224.025-.908-.236-1.691-.783-2.35-.547-.66-1.343-1.026-2.387-1.1-.15-.013-.23.059-.243.214-.012.155.063.24.224.252.895.074 1.58.388 2.052.942.472.553.696 1.227.671 2.023Zm-.503 2.052c-.2-.112-.389-.146-.57-.103-.18.044-.307.121-.381.233l-.355.448c-.087.124-.193.19-.317.196l-.186.009c-1.194-.31-2-.914-2.416-1.81L7.078 8.26l.018-.186a.544.544 0 0 1 .168-.336l.448-.354c.1-.088.174-.224.223-.41.05-.187.02-.38-.093-.579-.298-.535-.547-.917-.746-1.147a6.097 6.097 0 0 1-.447-.569.635.635 0 0 0-.383-.233.695.695 0 0 0-.475.084 3.757 3.757 0 0 0-.951.84c-.286.347-.373.714-.262 1.1.112.199.243.503.392.914.162.397.38.848.653 1.352.273.503.615 1.029 1.026 1.576a8.84 8.84 0 0 0 1.51 1.548c.572.472 1.234.914 1.987 1.324.752.41 1.32.671 1.706.783v.019c.373.124.727.037 1.063-.261a3.74 3.74 0 0 0 .802-.989.808.808 0 0 0 .093-.494.595.595 0 0 0-.223-.382 6.876 6.876 0 0 0-.793-.672 7.738 7.738 0 0 0-.867-.56Zm-1.865-3.712c.385.025.671.14.858.345.186.205.292.513.317.923 0 .15.077.221.233.215.155-.006.233-.09.233-.252-.025-.534-.174-.948-.448-1.24-.273-.292-.665-.45-1.175-.476-.149-.012-.23.063-.242.224-.013.162.062.249.224.261Z"/></svg><svg viewBox="0 0 17 15" id="x" xmlns="http://www.w3.org/2000/svg"><path d="M12.744.201h2.396l-5.26 5.99 6.146 8.125h-4.824L7.426 9.38l-4.323 4.937H.707L6.28 7.91.395.2h4.942l3.412 4.51 3.995-4.51Zm-.838 12.71h1.328L4.64 1.554H3.212l8.694 11.355Z"/></svg><svg viewBox="0 0 21 14" id="youtube" xmlns="http://www.w3.org/2000/svg"><path d="M19.795 2.512a2.456 2.456 0 0 0-.636-1.093 2.264 2.264 0 0 0-1.068-.61c-.39-.12-1-.204-1.831-.255-.831-.05-1.675-.089-2.53-.114a675.29 675.29 0 0 0-2.252-.064H9.52c-.644 0-1.394.013-2.25.038-.857.026-1.7.064-2.531.115-.848.05-1.458.127-1.831.229a2.501 2.501 0 0 0-1.081.648c-.314.314-.53.674-.649 1.081-.186.763-.296 1.734-.33 2.912L.797 7.167l.038 1.767c.025 1.179.14 2.14.343 2.887.12.424.331.788.636 1.093.305.306.661.509 1.068.61.39.12 1 .204 1.831.255.848.05 1.696.093 2.544.127.847.034 1.602.051 2.263.051H11.453c.644 0 1.395-.013 2.25-.038.857-.026 1.7-.064 2.531-.115.848-.05 1.458-.127 1.831-.229.424-.118.789-.33 1.094-.635.305-.306.517-.662.636-1.068.186-.763.3-1.734.343-2.912l.064-1.768-.051-1.768c-.034-1.178-.153-2.149-.356-2.912ZM8.554 10.066V4.267l5.06 2.9-5.06 2.899Z"/></svg></svg>