<svg width="48" height="48" viewBox="0 0 48 48" fill="none" xmlns="http://www.w3.org/2000/svg">
<path d="M24.0021 4.17749C13.07 4.17749 4.17969 13.0678 4.17969 23.9999C4.17969 34.932 13.07 43.8223 24.0021 43.8223C34.9342 43.8223 43.8245 34.932 43.8245 23.9999C43.8245 13.0678 34.9342 4.17749 24.0021 4.17749ZM40.5341 24.6946H42.421C42.2521 29.2524 40.4167 33.3924 37.5159 36.5233L36.1875 35.1949C35.9153 34.9226 35.474 34.9226 35.2018 35.1949C34.9295 35.4671 34.9295 35.9084 35.2018 36.1806L36.5302 37.509C33.3993 40.4145 29.2593 42.2452 24.7015 42.4141V40.5272C24.7015 40.1423 24.3917 39.8325 24.0068 39.8325C23.6219 39.8325 23.3121 40.1423 23.3121 40.5272V42.4141C18.7543 42.2452 14.6143 40.4098 11.4834 37.509L12.8118 36.1806C13.084 35.9084 13.084 35.4671 12.8118 35.1949C12.5396 34.9226 12.0983 34.9226 11.8261 35.1949L10.4977 36.5233C7.59217 33.3924 5.76154 29.2524 5.59256 24.6946H7.47951C7.86441 24.6946 8.17421 24.3848 8.17421 23.9999C8.17421 23.615 7.86441 23.3052 7.47951 23.3052H5.59256C5.76154 18.7474 7.59686 14.6074 10.4977 11.4765L11.8261 12.8049C11.9622 12.941 12.1406 13.0067 12.3189 13.0067C12.4973 13.0067 12.6757 12.941 12.8118 12.8049C13.084 12.5327 13.084 12.0914 12.8118 11.8192L11.4834 10.4908C14.6143 7.58527 18.7543 5.75465 23.3121 5.58567V7.47262C23.3121 7.85752 23.6219 8.16732 24.0068 8.16732C24.3917 8.16732 24.7015 7.85752 24.7015 7.47262V5.58567C29.2593 5.75465 33.3993 7.58997 36.5302 10.4908L35.2018 11.8192C34.9295 12.0914 34.9295 12.5327 35.2018 12.8049C35.3379 12.941 35.5163 13.0067 35.6947 13.0067C35.873 13.0067 36.0514 12.941 36.1875 12.8049L37.5159 11.4765C40.4214 14.6074 42.2521 18.7474 42.421 23.3052H40.5341C40.1492 23.3052 39.8394 23.615 39.8394 23.9999C39.8394 24.3848 40.1492 24.6946 40.5341 24.6946Z" fill="#0048F4"/>
<path d="M24 0C10.7678 0 0 10.7678 0 24C0 37.2321 10.7678 48 24 48C37.2322 48 48 37.2321 48 24C48 10.7678 37.2322 0 24 0ZM24 46.6059C11.533 46.6059 1.39409 36.4623 1.39409 24C1.39409 11.5376 11.5376 1.39409 24 1.39409C36.4623 1.39409 46.6059 11.5376 46.6059 24C46.6059 36.4623 36.4623 46.6059 24 46.6059Z" fill="#0048F4"/>
<path d="M24 0C10.7678 0 0 10.7678 0 24C0 37.2321 10.7678 48 24 48C37.2322 48 48 37.2321 48 24C48 10.7678 37.2322 0 24 0Z" fill="#0048F4"/>
<path d="M37.1523 23.3244L29.5106 21.5735L32.9231 16.0347C33.0921 15.7625 33.0498 15.4104 32.8292 15.1804C32.6086 14.9504 32.2566 14.9035 31.9796 15.0678L26.4549 18.316L24.6806 10.8433C24.6055 10.5335 24.3285 10.3128 24.0094 10.3081C23.6902 10.2988 23.4085 10.5194 23.3287 10.8292L21.3667 18.3864L16.0391 15.0819C15.7621 14.9129 15.4101 14.9504 15.1801 15.1804C14.9501 15.4104 14.9125 15.7672 15.0815 16.0394L18.494 21.536L10.8523 23.3244C10.5378 23.3995 10.3125 23.6811 10.3125 24.0003C10.3125 24.3195 10.5331 24.6058 10.8523 24.6762L18.3391 26.4318L15.0768 31.98C14.9125 32.2569 14.9595 32.6043 15.1895 32.8296C15.3256 32.961 15.4993 33.0267 15.6776 33.0267C15.8044 33.0267 15.9311 32.9939 16.0438 32.9234L21.3808 29.6377L23.3381 37.1714C23.4179 37.4765 23.6949 37.6925 24.014 37.6925C24.014 37.6925 24.0187 37.6925 24.0234 37.6925C24.3426 37.6925 24.6196 37.4672 24.6947 37.1574L26.5159 29.4922L31.9796 32.9188C32.2566 33.0924 32.6133 33.0502 32.8433 32.8202C33.0733 32.5902 33.1156 32.2334 32.9419 31.9565L29.4778 26.4364L37.1711 24.6762C37.4856 24.6058 37.7109 24.3242 37.7109 23.9956C37.7109 23.667 37.4856 23.3901 37.1711 23.315L37.1523 23.3244ZM30.271 17.6917L28.079 21.2497L27.0933 21.0244L26.7882 19.7382L30.271 17.6917ZM17.8275 17.8325L21.0005 19.7992L20.6814 21.0244L19.9163 21.2027L17.8275 17.8325ZM17.6866 30.2761L19.7473 26.7697L20.6814 26.9903L21.0052 28.2342L17.6866 30.2761ZM30.1255 30.1306L26.8351 28.0652L27.0933 26.9856L28.018 26.7744L30.1255 30.1306ZM26.361 25.723C26.1028 25.784 25.901 25.9811 25.84 26.2393L23.9718 34.111L21.9253 26.2252C21.8595 25.9764 21.6624 25.7793 21.4089 25.723L14.0582 24.0003L21.4089 22.2776C21.6624 22.2166 21.8595 22.0242 21.9253 21.7754L23.9718 13.8896L25.84 21.7613C25.901 22.0195 26.1028 22.2213 26.361 22.2776L33.876 24.0003L26.361 25.723Z" fill="white"/>
<path d="M23.9999 25.0469C24.578 25.0469 25.0466 24.5782 25.0466 24.0001C25.0466 23.422 24.578 22.9534 23.9999 22.9534C23.4218 22.9534 22.9531 23.422 22.9531 24.0001C22.9531 24.5782 23.4218 25.0469 23.9999 25.0469Z" fill="white"/>
</svg>
